<?xml version="1.0" encoding="UTF-8" standalone="no"?>
<!DOCTYPE svg PUBLIC "-//W3C//DTD SVG 1.1//EN" "http://www.w3.org/Graphics/SVG/1.1/DTD/svg11.dtd">
<svg width="100%" height="100%" viewBox="0 0 135 135" version="1.1" xmlns="http://www.w3.org/2000/svg" xmlns:xlink="http://www.w3.org/1999/xlink" xml:space="preserve" xmlns:serif="http://www.serif.com/" style="fill-rule:evenodd;clip-rule:evenodd;stroke-linejoin:round;stroke-miterlimit:2;">
    <g>
        <g>
            <path d="M97.973,12.122C84.144,12.122 72.005,19.885 67.736,31.409C67.675,31.578 67.598,31.73 67.5,31.874C67.406,31.73 67.324,31.578 67.263,31.409C63,19.885 50.858,12.122 37.02,12.122C19.525,12.122 5.274,24.67 5.274,40.079C5.274,45.684 7.131,51.1 10.683,55.712C10.716,55.743 10.739,55.794 10.739,55.794C10.852,55.923 10.948,56.005 11.034,56.085L67.501,122.878L123.964,56.085C124.056,56.005 124.152,55.923 124.268,55.794C124.268,55.794 124.285,55.743 124.32,55.712C127.876,51.101 129.73,45.685 129.73,40.079C129.728,24.67 115.477,12.122 97.973,12.122Z" style="fill:rgb(255,204,3);fill-rule:nonzero;"/>
            <path d="M67.262,31.409C62.999,19.885 50.857,12.122 37.019,12.122C19.524,12.122 5.273,24.67 5.273,40.079C5.273,45.684 7.13,51.1 10.682,55.712C10.715,55.743 10.738,55.794 10.738,55.794C10.851,55.923 10.947,56.005 11.033,56.085L67.5,122.878L67.5,31.874C67.405,31.73 67.323,31.578 67.262,31.409Z" style="fill:rgb(237,39,33);fill-rule:nonzero;"/>
        </g>
        <g>
            <circle cx="67.499" cy="68.556" r="21.931" style="fill:rgb(213,35,30);"/>
            <clipPath id="_clip1">
                <circle cx="67.499" cy="68.556" r="21.931"/>
            </clipPath>
            <g clip-path="url(#_clip1)">
                <g>
                    <path d="M67.499,85.354C79.611,85.354 89.43,77.833 89.43,68.555L45.568,68.555C45.568,77.833 55.388,85.354 67.499,85.354Z" style="fill:rgb(216,229,234);fill-rule:nonzero;"/>
                    <path d="M45.568,68.556C45.568,80.669 55.387,90.488 67.499,90.488C79.611,90.488 89.43,80.67 89.43,68.556L45.568,68.556Z" style="fill:white;fill-rule:nonzero;"/>
                </g>
            </g>
            <g>
                <path d="M89.43,70.056L45.568,70.056C44.739,70.056 44.068,69.385 44.068,68.556C44.068,67.727 44.739,67.056 45.568,67.056L89.43,67.056C90.259,67.056 90.93,67.727 90.93,68.556C90.93,69.385 90.258,70.056 89.43,70.056Z" style="fill:rgb(51,54,58);fill-rule:nonzero;"/>
                <path d="M67.499,91.987C54.579,91.987 44.068,81.476 44.068,68.555C44.068,55.636 54.579,45.125 67.499,45.125C80.419,45.125 90.93,55.637 90.93,68.556C90.93,81.476 80.419,91.987 67.499,91.987ZM67.499,48.126C56.233,48.126 47.068,57.291 47.068,68.556C47.068,79.822 56.233,88.988 67.499,88.988C78.765,88.988 87.93,79.822 87.93,68.556C87.93,57.291 78.765,48.126 67.499,48.126Z" style="fill:rgb(51,54,58);fill-rule:nonzero;"/>
                <g>
                    <path d="M67.536,48.246C66.707,48.246 66.036,47.575 66.036,46.746L66.036,45.337C66.036,44.508 66.707,43.837 67.536,43.837C68.365,43.837 69.036,44.508 69.036,45.337L69.036,46.746C69.036,47.575 68.365,48.246 67.536,48.246Z" style="fill:rgb(51,54,58);fill-rule:nonzero;"/>
                </g>
                <path d="M67.536,107.63C66.707,107.63 66.036,106.959 66.036,106.13L66.036,104.721C66.036,103.892 66.707,103.221 67.536,103.221C68.365,103.221 69.036,103.892 69.036,104.721L69.036,106.13C69.036,106.958 68.365,107.63 67.536,107.63Z" style="fill:rgb(51,54,58);fill-rule:nonzero;"/>
                <g>
                    <path d="M67.536,101.457C66.707,101.457 66.036,100.786 66.036,99.957L66.036,90.487C66.036,89.658 66.707,88.987 67.536,88.987C68.365,88.987 69.036,89.658 69.036,90.487L69.036,99.957C69.036,100.786 68.365,101.457 67.536,101.457Z" style="fill:rgb(51,54,58);fill-rule:nonzero;"/>
                </g>
                <g>
                    <path d="M67.536,121.833C66.707,121.833 66.036,121.162 66.036,120.333L66.036,110.863C66.036,110.034 66.707,109.363 67.536,109.363C68.365,109.363 69.036,110.034 69.036,110.863L69.036,120.333C69.036,121.162 68.365,121.833 67.536,121.833Z" style="fill:rgb(51,54,58);fill-rule:nonzero;"/>
                </g>
                <g>
                    <path d="M67.536,42.38C66.707,42.38 66.036,41.709 66.036,40.88L66.036,31.409C66.036,30.58 66.707,29.909 67.536,29.909C68.365,29.909 69.036,30.58 69.036,31.409L69.036,40.88C69.036,41.708 68.365,42.38 67.536,42.38Z" style="fill:rgb(51,54,58);fill-rule:nonzero;"/>
                </g>
                <path d="M67.499,124.378C67.058,124.378 66.639,124.184 66.353,123.846L9.947,57.125C9.828,57.015 9.726,56.916 9.611,56.785C9.56,56.727 9.514,56.665 9.473,56.6C5.744,51.747 3.773,46.035 3.773,40.079C3.773,23.836 18.687,10.622 37.019,10.622C50.363,10.622 62.232,17.57 67.5,28.183C72.781,17.566 84.644,10.622 97.973,10.622C116.31,10.622 131.228,23.836 131.228,40.079C131.228,46.028 129.264,51.73 125.548,56.573C125.5,56.653 125.444,56.728 125.381,56.798C125.252,56.941 125.141,57.045 125.037,57.138L68.646,123.846C68.359,124.184 67.94,124.378 67.499,124.378ZM11.91,54.852C11.941,54.884 11.971,54.91 11.997,54.934C12.044,54.977 12.137,55.068 12.178,55.117L67.499,120.555L122.816,55.117C122.865,55.059 122.918,55.005 122.976,54.955C123.017,54.919 123.053,54.889 123.09,54.853C123.104,54.834 123.117,54.816 123.131,54.798L123.129,54.797C126.464,50.472 128.227,45.382 128.227,40.08C128.227,25.492 114.655,13.623 97.972,13.623C84.784,13.623 73.198,20.98 69.141,31.931C69.041,32.209 68.907,32.473 68.734,32.724C68.45,33.136 67.962,33.358 67.48,33.374C66.98,33.368 66.515,33.113 66.242,32.694C66.075,32.438 65.947,32.186 65.851,31.922C61.804,20.979 50.215,13.622 37.018,13.622C20.34,13.622 6.772,25.491 6.772,40.079C6.772,45.377 8.535,50.467 11.87,54.796L11.869,54.797C11.882,54.815 11.896,54.834 11.91,54.852Z" style="fill:rgb(51,54,58);fill-rule:nonzero;"/>
            </g>
            <g>
                <g>
                    <circle cx="67.499" cy="71.068" r="7.251" style="fill:rgb(167,187,193);"/>
                </g>
                <g>
                    <circle cx="67.499" cy="68.604" r="7.251" style="fill:white;"/>
                </g>
                <g>
                    <path d="M62.372,73.731C59.54,70.899 59.54,66.307 62.372,63.475C65.204,60.643 69.795,60.643 72.626,63.475" style="fill:rgb(216,229,234);fill-rule:nonzero;"/>
                </g>
                <g>
                    <path d="M67.5,77.354C65.163,77.354 62.965,76.444 61.312,74.792C57.899,71.379 57.899,65.827 61.312,62.415C62.965,60.762 65.163,59.852 67.5,59.852C69.837,59.852 72.035,60.763 73.688,62.415C75.341,64.067 76.251,66.266 76.251,68.603C76.251,70.94 75.34,73.139 73.687,74.792C72.034,76.444 69.836,77.354 67.5,77.354ZM67.5,62.852C65.964,62.852 64.52,63.45 63.433,64.537C61.19,66.78 61.19,70.429 63.433,72.672C64.519,73.757 65.964,74.355 67.5,74.355C69.036,74.355 70.48,73.757 71.566,72.671C72.653,71.585 73.251,70.14 73.251,68.604C73.251,67.068 72.653,65.623 71.566,64.537C70.479,63.45 69.035,62.852 67.5,62.852Z" style="fill:rgb(51,54,58);fill-rule:nonzero;"/>
                </g>
            </g>
        </g>
        <g transform="matrix(-1,0,0,1,39.528,-1.42109e-14)">
            <text x="6.216px" y="123.259px" style="font-family:'MicrosoftSansSerif', 'Microsoft Sans Serif', sans-serif;font-size:52.465px;fill:rgb(51,54,58);stroke:rgb(51,54,58);stroke-width:1px;">?</text>
        </g>
        <g transform="matrix(1,0,0,1,95.471,-1.42109e-14)">
            <text x="6.216px" y="123.259px" style="font-family:'MicrosoftSansSerif', 'Microsoft Sans Serif', sans-serif;font-size:52.465px;fill:rgb(51,54,58);stroke:rgb(51,54,58);stroke-width:1px;">?</text>
        </g>
        <g transform="matrix(0.5,0,0,0.5,26.7458,-19.2496)">
            <text x="6.216px" y="123.259px" style="font-family:'MicrosoftSansSerif', 'Microsoft Sans Serif', sans-serif;font-size:52.465px;fill:rgb(51,54,58);stroke:rgb(51,54,58);stroke-width:2px;">?</text>
        </g>
        <g transform="matrix(-0.5,0,0,0.5,108.253,-19.2496)">
            <text x="6.216px" y="123.259px" style="font-family:'MicrosoftSansSerif', 'Microsoft Sans Serif', sans-serif;font-size:52.465px;fill:rgb(51,54,58);stroke:rgb(51,54,58);stroke-width:2px;">?</text>
        </g>
    </g>
</svg>
